<svg xmlns="http://www.w3.org/2000/svg" width="88" height="88" viewBox="0 0 88 88" fill="none"><g filter="url(#filter0_d_129_2107)"><circle cx="44" cy="42" r="40" fill="#F7FBFE"></circle></g><path d="M49.5166 36.4837C54.1843 41.1563 54.1203 48.6476 49.5447 53.2486C49.5361 53.2579 49.526 53.2681 49.5166 53.2775L44.2666 58.5275C39.6361 63.1579 32.1026 63.1573 27.4729 58.5275C22.8424 53.8978 22.8424 46.3634 27.4729 41.7337L30.3718 38.8348C31.1405 38.0661 32.4644 38.577 32.5041 39.6634C32.5547 41.0479 32.803 42.4389 33.2611 43.7822C33.4163 44.2371 33.3054 44.7402 32.9656 45.08L31.9432 46.1025C29.7536 48.292 29.685 51.8572 31.8529 54.0681C34.0423 56.3008 37.6409 56.3141 39.8471 54.1079L45.0971 48.8587C47.2995 46.6563 47.2903 43.0964 45.0971 40.9032C44.8079 40.6147 44.5167 40.3904 44.2892 40.2338C44.1282 40.1233 43.9954 39.9767 43.9011 39.8057C43.8069 39.6347 43.7539 39.444 43.7465 39.2489C43.7155 38.4234 44.008 37.5727 44.6604 36.9204L46.3052 35.2754C46.7365 34.8441 47.4132 34.7911 47.9133 35.1402C48.4861 35.5402 49.0226 35.9897 49.5166 36.4837ZM60.5272 25.4726C55.8974 20.8428 48.3639 20.8421 43.7334 25.4726L38.4834 30.7226C38.474 30.732 38.4639 30.7421 38.4553 30.7515C33.8798 35.3525 33.8157 42.8438 38.4834 47.5164C38.9774 48.0103 39.5138 48.4599 40.0866 48.8598C40.5868 49.2089 41.2635 49.1558 41.6947 48.7246L43.3396 47.0797C43.9919 46.4273 44.2844 45.5766 44.2535 44.7511C44.246 44.556 44.193 44.3653 44.0988 44.1943C44.0046 44.0233 43.8717 43.8767 43.7107 43.7662C43.4832 43.6096 43.192 43.3854 42.9029 43.0968C40.7097 40.9036 40.7004 37.3437 42.9029 35.1413L48.1529 29.8921C50.359 27.6859 53.9575 27.6992 56.147 29.9319C58.315 32.1429 58.2464 35.708 56.0568 37.8975L55.0343 38.92C54.6945 39.2598 54.5836 39.7629 54.7388 40.2178C55.1969 41.5611 55.4452 42.9521 55.4958 44.3366C55.5356 45.423 56.8594 45.934 57.6282 45.1652L60.5271 42.2663C65.1576 37.6367 65.1576 30.1023 60.5272 25.4726Z" fill="#024751"></path><defs><filter id="filter0_d_129_2107" x="0" y="0" width="88" height="88" color-interpolation-filters="sRGB"><feGaussianBlur stdDeviation="2"></feGaussianBlur></filter></defs></svg>