<?xml version="1.0" encoding="UTF-8"?>
<svg xmlns="http://www.w3.org/2000/svg" width="80" height="80" viewBox="0 0 80 80" fill="none">
  <rect width="80" height="80" rx="25" fill="#F7FBFE"></rect>
  <path d="M19.266 35V24.326H15.18V22.04H25.8V24.326H21.714V35H19.266ZM25.9948 35L29.9548 22.04H33.6088L37.5688 35H35.0488L31.5208 23.57H31.9888L28.5148 35H25.9948ZM28.3708 32.3V30.014H35.2108V32.3H28.3708ZM39.1819 35V22.04H41.6659L47.2999 30.68V22.04H49.7839V35H47.2999L41.6659 26.36V35H39.1819ZM51.9352 35V34.694L58.0912 24.326H52.4752V22.04H62.3752V22.346L56.2552 32.696H62.1952V35H51.9352ZM19.266 58V47.326H15.18V45.04H25.8V47.326H21.714V58H19.266ZM27.2463 58V45.04H35.7063V47.326H29.6943V50.098H34.6263V52.384H29.6943V55.714H35.7063V58H27.2463ZM42.9685 58.27C41.6725 58.27 40.5535 57.988 39.6115 57.424C38.6755 56.86 37.9525 56.071 37.4425 55.057C36.9385 54.043 36.6865 52.864 36.6865 51.52C36.6865 50.176 36.9385 48.997 37.4425 47.983C37.9525 46.969 38.6755 46.18 39.6115 45.616C40.5535 45.052 41.6725 44.77 42.9685 44.77C44.4565 44.77 45.7045 45.139 46.7125 45.877C47.7265 46.615 48.4405 47.614 48.8545 48.874L46.3885 49.558C46.1485 48.772 45.7435 48.163 45.1735 47.731C44.6035 47.293 43.8685 47.074 42.9685 47.074C42.1465 47.074 41.4595 47.257 40.9075 47.623C40.3615 47.989 39.9505 48.505 39.6745 49.171C39.3985 49.837 39.2605 50.62 39.2605 51.52C39.2605 52.42 39.3985 53.203 39.6745 53.869C39.9505 54.535 40.3615 55.051 40.9075 55.417C41.4595 55.783 42.1465 55.966 42.9685 55.966C43.8685 55.966 44.6035 55.747 45.1735 55.309C45.7435 54.871 46.1485 54.262 46.3885 53.482L48.8545 54.166C48.4405 55.426 47.7265 56.425 46.7125 57.163C45.7045 57.901 44.4565 58.27 42.9685 58.27ZM50.8362 58V45.04H53.2842V50.368H59.0802V45.04H61.5282V58H59.0802V52.654H53.2842V58H50.8362Z" fill="#102830"></path>
</svg>
